Patient4_TMGait_0pt4_01_right_20_EMG.mot
version=1
nRows=26
nColumns=33
inDegrees=no
endheader
time	1LAddLong	2LGlutMax	3LGlutMed	4LIliopsoas	5LSemiMemb	6LBicFemLong	7LRecFem	8LVastMed	9LVastLat	10LGasMed	11LTibAnt	12lTibPost	13LPeroneusLong	14LSol	15LExtDigLong	16LFlexDigLong	17RAddLong	18RGlutMax	19RGlutMed	20RIliopsoas	21RSemiMemb	22RBicFemLong	23RRecFem	24RVastMed	25RVastLat	26RGasMed	27RTibAnt	28RTibPost	29RPeroneusLong	30RSol	31RExtDigLong	32RFlexDigLong
26.66	-0.005188	-0.089569	0.005035	0.011597	-0.10407	-0.30075	0.003357	0.022125	0.069733	0.010529	0.009003	-0.004272	0.006561	0.024261	0.009766	0.007172	0.026245	-0.21606	0.09964	-0.076599	-0.014038	-0.023193	-0.15182	-0.06958	0.06485	-0.000153	0.11139	-0.027618	-0.003357	-0.54199	0.000458	-0.007019
26.661	-0.000153	-0.038147	0.00473	0.007782	0.10696	-0.15595	-0.007019	0.024719	0.070343	-0.00473	0.004425	-0.004425	0.036621	0.028687	0.01358	0.001068	0.004578	-0.25421	0.09079	-0.10666	-0.019226	0.000916	-0.17868	0.022888	0.047607	0.001526	0.11612	-0.088348	-0.023499	-0.23911	-0.000458	-0.002594
26.662	-0.024872	-0.065613	0.000305	0.005646	0.081024	0.017395	0.030823	0.028992	-0.003662	0.011749	-0.002747	-0.002289	0.060425	0.027924	0.016785	-0.001678	0.00412	-0.24262	0.13016	-0.07431	-0.057831	-0.003662	-0.094147	0.013123	0.074615	0.001068	0.075836	0.028076	0.073547	0.2002	0	-0.011749
26.663	-0.01709	-0.023956	0.002289	-0.000305	-0.024109	0.12253	0.071106	0.045319	-0.088501	0.007477	-0.02121	-0.003662	-0.024109	0.009155	0.019836	0	0.005188	-0.17929	0.025787	-0.0354	-0.072327	0.003357	-0.11704	-0.034027	0.066833	0	0.061035	0.019226	0.13412	0.19226	0.002441	-0.009918
26.664	0.001984	-0.041046	-0.00885	0.006104	-0.032349	0.01358	0.000916	0.019836	-0.20874	-0.009003	-0.005035	-0.004578	-0.064087	0.024261	0.00946	-0.010376	0.006714	-0.23071	0.50217	0.015259	-0.003052	0.010376	-0.10361	-0.003204	0.044403	-0.002594	0.056458	0.000763	-0.2385	0.044098	0.002136	-0.00885
26.665	-0.012054	-0.033264	-0.001068	0.002899	-0.083466	0.003815	-0.041351	-0.023041	-0.27847	-0.000763	0.020142	-0.010529	-0.026245	0.018463	0.006256	0.014801	0.010834	-0.21973	0.48874	0.062561	0.080566	0.011444	-0.075836	-0.011597	0.019226	-0.003052	0.048218	0.001068	-0.36545	0.007629	-0.001831	-0.003204
26.666	0.051727	0.005493	-0.006409	0.014801	-0.005341	0.021667	-0.055847	-0.025177	-0.29297	0.019684	-0.008545	0.001526	-0.020142	0.011749	0.001678	0.006409	0.009308	-0.32364	-0.16403	0.030212	0.063934	0.023956	-0.11215	-0.010223	0.024567	-0.014191	0.049591	-0.001526	-0.11749	0.046082	0.003967	-0.012207
26.667	0.081329	-0.006409	-0.010223	-0.007782	0.11169	-0.006409	0.000916	-0.010986	-0.12558	0.013428	0.009918	-0.005341	-0.015717	0.042419	-0.020752	0.003052	0.016785	-0.38986	-0.1796	0.016022	0.01709	0.038452	-0.090485	-0.03418	0.030518	-0.002747	0.038452	-0.006866	0.1471	0.048828	-0.001221	-0.000153
26.668	-0.016022	-0.004272	-0.011139	-0.001678	0.10651	-0.000916	0.041962	0.001373	0.028229	0.009918	0.009766	-0.007019	-0.039215	0.028687	-0.029602	-0.002747	0.036011	-0.32898	-0.002899	-0.007782	-0.11017	0.040588	-0.092926	-0.037689	0.021057	0.016327	0.024414	-0.010986	0.12146	0.093842	-0.000305	-0.014801
26.669	0.003815	0.060425	-0.003204	0.003815	0.075226	-0.016937	0.077972	0.014038	0.20325	0	0.003815	-0.005646	0.007172	0.033264	-0.0177	0.011292	0.031891	-0.29709	0.036163	-0.005798	-0.26047	0.062866	-0.1004	-0.032959	0.046539	0.019836	0.046997	-0.01236	-0.010681	0.03952	0.002441	-0.020294
26.67	-0.003815	0.072327	-0.008545	0.000153	0.066528	-0.080109	0.076294	0.009155	0.33814	0.006104	0.005035	-0.008698	-0.019989	0.041656	0.001526	0.00061	0.021515	-0.26138	-0.20004	0.055542	-0.10437	0.001373	-0.10437	-0.021057	0.035095	0.004883	0.028992	-0.023651	-0.10757	-0.074158	-0.001984	-0.019989
26.671	0.000153	0.08728	-0.017395	-0.015869	0.009613	-0.086365	0.10208	0.018921	0.44998	0.009613	0.002136	-0.003967	-0.095215	0.032959	0.015106	-0.007935	0.047913	-0.28275	-0.003662	0.049286	0.1474	-0.08667	-0.066528	-0.063782	0.043945	-0.00061	0.022583	-0.03006	-0.049896	-0.11444	-0.001373	-0.019226
26.672	-0.000763	0.13489	-0.006409	-0.012512	-0.038452	-0.032349	0.048828	0.020294	0.57739	-0.02594	-0.004578	-0.001373	-0.043182	0.022888	0.005493	0.005646	0.04715	-0.22354	0.13657	0.052948	0.26779	-0.11887	-0.063629	-0.042114	0.03067	-0.010986	0.039673	-0.023651	0.059052	0.069275	0.001526	-0.019379
26.673	-0.004272	0.16663	-0.014343	-0.019989	-0.072327	0.096283	0.018921	0.048065	0.46295	-0.041046	-0.008698	-0.006256	0.028687	0.006561	0.00885	0.00412	0.045776	-0.26352	-0.030975	-0.054932	0.020599	-0.062561	-0.087128	0.014648	0.017242	-0.016174	-0.007629	-0.001678	0.15381	-0.12329	0.001831	-0.015259
26.674	-0.023651	0.16937	-0.009918	-0.010986	-0.059814	0.15854	0.029297	0.046844	0.28473	0.000916	0.000305	-0.004272	0.023346	0.001984	0.006714	0.007629	-0.001373	-0.31036	-0.037079	-0.17349	-0.2832	-0.005035	-0.12848	0.010834	0.032349	-0.019989	0.00824	0.038147	0.044098	-0.94345	-0.002289	-0.007935
26.675	-0.024414	0.1857	-0.006104	-0.005798	-0.044403	0.12497	0.063629	0.018616	-0.1152	-0.00473	-0.002594	0.000763	0.069275	0.002136	-0.003052	-0.001373	-0.024719	-0.30807	0.39856	-0.11398	-0.15488	-0.2179	-0.12955	0.012817	0.027771	-0.01236	0.025787	0.026245	-0.15335	-1.0118	0.002594	-0.009003
26.676	-0.013123	0.19653	-0.004425	0.00946	-0.045471	0.054626	0.11673	0.032196	-0.40619	0.024719	0.000153	-0.002441	0.19333	0.015717	-0.008392	-0.011139	-0.020447	-0.28229	0.14252	-0.059967	0.11917	-0.30319	-0.13214	0.029144	0.027008	-0.006714	0.010529	-0.009766	-0.12741	-0.7196	-0.001221	-0.00412
26.677	-0.023346	0.19028	0.001984	0.01297	-0.10315	0.00946	0.11108	0.03418	-0.52795	0.011597	0.004578	0.001984	0.20599	0.016327	0.01358	0.015259	-0.008698	-0.33676	0.014954	0.11475	0.14252	-0.10696	-0.072327	-0.017853	0.010071	0.011597	0.027924	-0.014343	0.06134	0.071411	0.000153	-0.002441
26.678	-0.022278	0.22018	-0.012817	0.007324	-0.028687	0.036011	0.11719	0.020599	-0.35248	0.014343	0.013428	-0.011902	0.14603	0.046844	0.031128	0.007324	0.003662	-0.27618	-0.12283	0.094147	0.030518	0.006714	-0.1329	0.007019	0.007172	0.020752	0.075684	-0.007019	0.20477	0.48904	0.002289	-0.007172
26.679	0.000153	0.2095	-0.013885	0.019379	0.059509	0.023804	0.14221	0	-0.21881	-0.001221	-0.003052	-0.005493	0.052948	0.06073	0.05188	0.01297	0.010529	-0.27298	-0.019531	0.022888	-0.021973	0.029755	-0.096893	-0.015106	0.014954	0.016174	0.10574	-0.013885	0.37186	0.55512	0.000305	-0.001526
26.68	0.014496	0.20599	-0.005188	-0.002136	0.031586	0.041656	0.11536	-0.03891	-0.29007	-0.001678	-0.012512	-0.004272	-0.40283	0.069885	0.061798	0.001373	0.019989	-0.271	-0.042877	-0.053406	-0.032959	0.13855	-0.15518	0.004578	0.000458	0.059662	0.018158	0.007629	0.26047	0.13825	-0.00061	0.007629
26.681	0.035553	0.23163	-0.005341	-0.002747	0.04303	0.085602	0.12299	-0.047913	-0.45364	0.000458	0.002747	-0.014954	-0.36972	0.09903	0.057983	0.007629	0.016785	-0.2533	-0.36789	-0.000305	-0.003357	0.10208	-0.18936	-0.050354	0.009308	0.029144	0.002594	0.00946	0.1651	-0.21164	0.001373	-0.00885
26.682	0.019073	0.233	-0.01709	-0.007477	0.065765	0.077209	0.15015	-0.025024	-0.52307	-0.000458	-0.00885	-0.008392	-0.14877	0.029144	0.006714	0.001831	0.015259	-0.2562	-0.14877	-0.061951	-0.039673	0.098114	-0.16205	-0.001068	0.001221	0.068817	0.030212	-0.042267	0.23239	-0.53314	-0.004883	-0.00885
26.683	0.014191	0.23773	-0.026703	0.000305	0.029297	0.15961	0.16159	-0.006561	-0.39963	0.00885	-0.008698	-0.006256	0.59921	-0.016632	-0.011902	-0.001678	-0.006561	-0.28686	-0.10605	-0.033264	0.017395	0.084076	-0.11734	0.033112	0.004272	0.030212	0.042114	-0.38803	-0.49057	-0.55298	0.001221	-0.013428
26.684	0.002747	0.2356	-0.014343	0.031128	-0.021973	0.22919	0.22919	-0.001526	-0.2536	0.00412	-0.015411	-0.008698	1.087	0.003204	0.013428	0.003815	0.008087	-0.32822	0.036469	0.001984	0.083008	0.044708	-0.10391	-0.000153	-0.014343	0.055084	-0.023193	-0.10254	-0.94147	-0.078735	0.000916	-0.005188
26.685	-0.005646	0.233	-0.024567	0.012817	-0.015106	0.19562	0.18997	0.001526	-0.17624	-0.054169	-0.024719	-0.007324	0.64224	0.073242	0.050354	0.006409	0.032806	-0.31937	-0.2182	-0.001068	0.03891	-0.014038	-0.1149	-0.036774	-0.006714	0.034485	-0.056152	-0.56381	-0.41336	0.099792	0.000763	-0.001526
